<?xml version="1.0" standalone="no"?>
<!DOCTYPE svg PUBLIC "-//W3C//DTD SVG 20010904//EN"
 "http://www.w3.org/TR/2001/REC-SVG-20010904/DTD/svg10.dtd">
<svg version="1.0" xmlns="http://www.w3.org/2000/svg"
 width="512.000000pt" height="512.000000pt" viewBox="0 0 512.000000 512.000000"
 preserveAspectRatio="xMidYMid meet">

<g transform="translate(0.000000,512.000000) scale(0.100000,-0.100000)"
fill="#000000" stroke="none">
<path d="M243 4445 c-16 -7 -33 -20 -37 -30 -3 -9 -6 -248 -6 -531 l0 -515 25
-24 c31 -32 66 -32 102 -1 l28 24 3 501 c3 551 2 559 -55 578 -21 8 -38 7 -60
-2z"/>
<path d="M454 4452 c-12 -2 -30 -12 -40 -24 -18 -19 -19 -50 -22 -535 l-3
-514 30 -30 c36 -36 73 -38 106 -4 l25 24 0 518 c-1 409 -3 522 -14 535 -16
21 -54 35 -82 30z"/>
<path d="M650 4452 c-8 -3 -25 -14 -37 -25 l-23 -20 0 -529 c0 -607 6 -561
-99 -761 -58 -110 -59 -114 -73 -237 -8 -79 -13 -238 -12 -430 1 -399 18 -591
110 -1200 28 -188 28 -266 -2 -339 -23 -59 -63 -84 -133 -85 -75 0 -113 21
-142 81 -32 66 -29 172 15 513 61 478 70 624 71 1121 l0 446 -80 158 -80 159
-5 552 c-5 525 -6 553 -24 573 -29 32 -88 29 -115 -5 -21 -26 -21 -36 -21
-554 0 -617 -2 -605 102 -798 l63 -117 0 -430 c-1 -468 -10 -609 -66 -1057
-16 -134 -34 -284 -39 -335 -25 -265 70 -436 259 -461 120 -17 217 13 285 89
52 57 76 115 88 217 10 82 8 107 -40 442 -28 195 -58 432 -67 525 -23 245 -30
705 -12 881 l13 140 52 90 c28 49 64 123 79 164 l28 75 3 551 c3 539 2 551
-17 576 -21 26 -54 38 -81 30z"/>
<path d="M4982 4445 c-191 -43 -366 -218 -441 -442 -46 -138 -51 -211 -51
-818 0 -621 0 -626 58 -743 15 -31 48 -79 74 -107 l47 -52 3 -709 c3 -704 3
-709 25 -749 27 -51 57 -79 113 -104 54 -25 101 -26 163 -5 56 19 121 86 136
140 8 27 11 577 11 1790 0 1730 0 1752 -20 1776 -25 32 -52 37 -118 23z m-22
-1860 c0 -1672 0 -1685 -20 -1705 -20 -20 -56 -26 -76 -12 -33 22 -34 49 -34
764 l0 713 -61 64 c-34 35 -73 89 -88 120 l-26 56 0 620 c0 572 1 625 19 690
40 152 120 276 223 344 25 17 50 31 55 31 4 0 8 -758 8 -1685z"/>
<path d="M2286 4345 c-480 -78 -907 -345 -1188 -745 -76 -109 -186 -330 -227
-457 -120 -376 -119 -754 4 -1121 154 -460 488 -834 930 -1043 798 -375 1761
-102 2241 636 326 502 379 1142 140 1685 -88 199 -199 363 -355 524 -256 263
-568 434 -926 507 -141 29 -479 36 -619 14z m399 -146 c763 -66 1358 -624
1476 -1384 19 -124 15 -369 -9 -505 -105 -586 -528 -1076 -1089 -1259 -772
-252 -1613 108 -1963 841 -289 606 -175 1322 288 1809 281 296 670 477 1077
502 28 2 61 4 75 5 14 1 79 -3 145 -9z"/>
<path d="M2385 3759 c-151 -22 -356 -101 -483 -188 -262 -177 -439 -442 -501
-748 -25 -123 -28 -320 -6 -445 64 -366 307 -686 649 -853 278 -137 597 -157
893 -58 172 57 324 152 459 287 152 153 256 335 310 543 32 121 43 336 24 464
-24 171 -105 368 -210 518 -64 90 -202 229 -237 237 -57 15 -113 -35 -100 -87
4 -14 44 -63 90 -110 46 -46 102 -111 124 -144 274 -406 235 -924 -94 -1275
-131 -139 -276 -228 -468 -287 -84 -25 -101 -27 -275 -27 -173 0 -191 2 -275
28 -210 64 -389 183 -516 344 -263 330 -297 781 -87 1144 154 267 421 449 731
498 166 27 383 -1 545 -70 39 -16 82 -30 95 -30 52 0 91 84 57 125 -34 41
-207 104 -357 130 -92 16 -271 18 -368 4z"/>
<path d="M2198 3129 c-65 -15 -155 -67 -207 -119 -94 -94 -141 -238 -120 -370
21 -132 33 -147 362 -477 286 -288 303 -303 338 -303 35 0 55 17 338 290 331
320 350 345 374 484 30 179 -71 375 -237 456 -131 64 -281 58 -411 -15 -39
-22 -66 -31 -70 -25 -10 16 -105 62 -160 76 -56 15 -151 17 -207 3z m178 -164
c27 -8 78 -35 114 -60 35 -25 74 -45 85 -45 12 0 51 19 86 41 81 53 128 69
198 69 176 0 306 -174 257 -343 -9 -31 -28 -69 -42 -86 -50 -59 -495 -482
-504 -479 -5 2 -122 115 -259 251 -283 282 -288 289 -279 418 9 114 69 192
181 230 64 22 99 23 163 4z"/>
</g>
</svg>
