<?xml version="1.0" standalone="no"?>
<!DOCTYPE svg PUBLIC "-//W3C//DTD SVG 20010904//EN"
 "http://www.w3.org/TR/2001/REC-SVG-20010904/DTD/svg10.dtd">
<svg version="1.0" xmlns="http://www.w3.org/2000/svg"
 width="512.000000pt" height="512.000000pt" viewBox="0 0 512.000000 512.000000"
 preserveAspectRatio="xMidYMid meet">

<g transform="translate(0.000000,512.000000) scale(0.100000,-0.100000)"
fill="#000000" stroke="none">
<path d="M2795 4698 l-2050 -421 -275 -6 c-301 -7 -314 -10 -384 -71 -20 -18
-47 -52 -59 -74 -22 -40 -22 -50 -25 -476 -2 -306 0 -447 8 -474 17 -59 57
-112 109 -146 l46 -31 5 -1372 5 -1372 28 -56 c32 -67 109 -142 175 -172 l47
-22 2135 0 2135 0 47 22 c66 30 143 105 175 172 l28 56 3 1366 2 1366 35 6
c50 8 94 43 116 91 16 36 19 68 19 243 0 214 -4 240 -48 287 -56 60 64 56
-1843 56 -1732 0 -1751 0 -1776 20 -18 14 -21 21 -12 24 8 3 399 84 869 181
1188 245 1365 282 1525 315 77 16 372 77 655 135 284 59 528 114 545 124 37
21 73 73 81 118 9 48 -67 411 -96 458 -25 40 -92 75 -141 74 -19 0 -956 -190
-2084 -421z m2090 230 c15 -67 64 -312 62 -314 -1 0 -27 -6 -57 -12 l-55 -10
-114 106 c-63 59 -132 123 -154 142 l-40 36 169 36 c93 20 172 36 176 37 4 1
10 -9 13 -21z m-410 -234 c80 -75 143 -140 138 -144 -4 -4 -70 -20 -145 -35
l-137 -28 -73 66 c-166 151 -233 215 -228 219 7 7 240 55 271 57 21 1 57 -27
174 -135z m-506 -106 c85 -78 149 -143 145 -145 -5 -1 -72 -16 -149 -32 l-140
-29 -45 41 c-168 153 -259 241 -255 246 6 5 247 58 276 60 9 0 84 -63 168
-141z m-509 -102 c105 -97 148 -142 138 -147 -7 -4 -73 -19 -146 -34 -130 -26
-134 -26 -155 -8 -90 75 -287 268 -278 271 23 8 276 60 283 59 4 -1 75 -65
158 -141z m-500 -111 c114 -104 147 -141 134 -144 -11 -1 -79 -16 -152 -31
l-133 -28 -156 146 -156 147 129 27 c71 14 141 26 156 25 19 -2 69 -41 178
-142z m-512 -100 c94 -86 147 -142 139 -146 -6 -3 -74 -18 -149 -34 l-137 -28
-154 146 -154 146 71 15 c39 9 100 22 136 30 36 8 72 14 81 13 9 -1 84 -65
167 -142z m-514 -97 c83 -78 152 -144 154 -148 1 -4 -59 -19 -134 -34 l-136
-28 -32 30 c-17 16 -84 78 -148 138 -64 60 -118 113 -120 119 -2 5 56 21 127
36 72 15 132 27 134 28 1 1 71 -63 155 -141z m-479 -105 c86 -81 154 -148 149
-150 -5 -1 -87 -18 -182 -38 l-174 -35 -178 137 c-99 76 -179 141 -179 144 -1
4 330 77 400 88 3 1 77 -65 164 -146z m-458 -243 c299 -232 350 -276 361 -308
10 -26 13 -79 10 -175 -3 -138 -3 -139 -31 -163 l-28 -24 -539 0 c-296 0 -546
3 -555 6 -43 17 -45 42 -45 467 0 390 1 405 20 430 11 14 30 28 43 30 12 2
110 5 219 6 l196 1 349 -270z m883 -337 c0 -4 -48 -81 -107 -170 l-108 -163
-71 0 -72 0 9 38 c5 20 9 97 9 170 l0 132 170 0 c94 0 170 -3 170 -7z m407
-163 l-111 -170 -154 0 -154 0 18 28 c9 15 60 91 112 170 l95 142 153 0 153 0
-112 -170z m607 143 c-9 -16 -60 -92 -112 -170 l-95 -143 -154 0 -153 0 112
170 113 169 154 1 153 0 -18 -27z m526 22 c0 -3 -50 -80 -110 -170 l-110 -165
-150 0 c-83 0 -150 2 -150 5 0 3 50 80 110 170 l110 165 150 0 c83 0 150 -2
150 -5z m510 0 c0 -3 -50 -80 -110 -170 l-110 -165 -150 0 c-83 0 -150 2 -150
5 0 3 50 80 110 170 l110 165 150 0 c83 0 150 -2 150 -5z m408 -165 l-113
-169 -154 -1 -153 0 18 28 c9 15 60 91 112 170 l95 142 154 0 153 0 -112 -170z
m612 0 l0 -170 -261 0 -261 0 18 28 c9 15 60 91 112 170 l95 142 149 0 148 0
0 -170z m-172 -1694 l-3 -1354 -31 -39 c-17 -21 -46 -46 -65 -55 -32 -17 -154
-18 -2116 -18 -1444 0 -2090 3 -2110 11 -42 15 -92 68 -103 109 -6 22 -10 524
-10 1368 l0 1332 2220 0 2220 0 -2 -1354z"/>
<path d="M391 3914 c-56 -24 -65 -108 -15 -141 82 -53 174 43 114 119 -24 32
-59 39 -99 22z"/>
<path d="M369 3471 c-31 -31 -36 -59 -17 -94 41 -78 159 -52 158 35 -1 37 -14
59 -47 76 -35 19 -63 14 -94 -17z"/>
<path d="M1072 3490 c-31 -13 -55 -71 -43 -104 33 -85 161 -67 161 24 0 21 -8
47 -17 59 -21 25 -68 35 -101 21z"/>
<path d="M1820 2714 c-328 -70 -558 -414 -537 -804 15 -283 137 -506 447 -824
187 -192 780 -733 811 -741 14 -3 34 -2 46 2 28 11 493 433 707 643 393 385
526 611 543 920 27 516 -360 898 -815 804 -155 -32 -287 -107 -396 -226 l-66
-70 -66 70 c-176 191 -435 278 -674 226z m315 -185 c81 -30 159 -81 219 -143
48 -49 66 -74 129 -173 16 -25 37 -45 52 -49 51 -13 73 3 130 91 134 208 324
317 525 302 169 -12 314 -113 399 -277 123 -235 103 -509 -55 -752 -76 -119
-131 -185 -269 -327 -133 -137 -690 -651 -705 -651 -11 0 -444 394 -609 555
-380 369 -516 611 -498 885 18 283 164 487 397 556 66 20 210 11 285 -17z"/>
</g>
</svg>
