<?xml version="1.0" standalone="no"?>
<!DOCTYPE svg PUBLIC "-//W3C//DTD SVG 20010904//EN"
 "http://www.w3.org/TR/2001/REC-SVG-20010904/DTD/svg10.dtd">
<svg version="1.0" xmlns="http://www.w3.org/2000/svg"
 width="512.000000pt" height="512.000000pt" viewBox="0 0 512.000000 512.000000"
 preserveAspectRatio="xMidYMid meet">

<g transform="translate(0.000000,512.000000) scale(0.100000,-0.100000)"
fill="#000000" stroke="none">
<path d="M2418 5110 c-250 -40 -459 -163 -609 -359 l-52 -68 -60 79 c-78 105
-178 186 -302 248 -165 81 -228 95 -440 94 -167 0 -186 -2 -270 -28 -352 -108
-585 -360 -662 -716 -24 -112 -24 -321 0 -443 58 -293 223 -625 461 -927 379
-482 1028 -980 1276 -980 87 0 206 52 383 169 l107 71 0 -420 0 -420 -48 35
c-219 157 -531 179 -788 55 -352 -170 -520 -543 -417 -925 122 -453 610 -690
1061 -515 256 99 426 316 477 607 13 71 15 224 15 929 l0 843 38 10 c20 6 531
133 1135 284 l1097 275 0 -474 c0 -261 -2 -474 -5 -474 -2 0 -30 18 -61 40
-204 143 -508 163 -752 49 -182 -84 -302 -200 -389 -374 -79 -157 -96 -351
-49 -537 66 -259 226 -445 465 -537 102 -39 185 -53 311 -53 132 1 232 26 360
88 80 40 109 61 186 138 77 77 98 106 138 186 25 52 56 131 68 175 l23 80 3
1160 c2 789 -1 1175 -8 1210 -34 165 -162 307 -321 356 -121 38 -155 33 -752
-116 -298 -75 -551 -138 -561 -142 -16 -4 -18 -2 -12 18 45 157 59 397 32 541
-73 377 -366 671 -751 754 -87 19 -252 26 -327 14z m-1293 -314 c211 -56 383
-224 470 -461 36 -99 45 -113 81 -135 62 -39 173 -18 203 39 6 11 23 52 37 93
88 247 263 414 494 469 77 18 231 15 310 -5 182 -48 343 -177 419 -336 23 -47
48 -116 56 -155 32 -151 9 -367 -56 -536 l-30 -77 -272 -67 c-314 -78 -377
-105 -458 -193 -27 -30 -61 -77 -75 -103 -48 -96 -54 -143 -54 -434 l0 -270
-103 -76 c-174 -131 -352 -239 -393 -239 -27 0 -183 86 -278 154 -182 130
-306 236 -477 406 -254 253 -424 477 -542 715 -196 394 -207 715 -33 959 98
137 254 236 419 266 65 11 215 4 282 -14z m3628 -1069 c57 -43 68 -88 65 -261
l-3 -150 -1105 -276 c-608 -152 -1117 -280 -1132 -283 l-28 -7 0 197 c0 179 2
200 21 240 13 27 35 51 58 64 21 13 438 123 1001 265 1066 269 1051 266 1123
211z m-296 -1821 c79 -21 141 -56 205 -115 286 -263 157 -746 -223 -836 -168
-39 -333 8 -455 129 -99 100 -145 207 -145 344 0 224 123 398 331 469 77 27
206 30 287 9z m-2595 -637 c247 -52 417 -295 381 -546 -35 -241 -242 -422
-483 -423 -214 0 -408 141 -472 343 -22 71 -26 185 -8 262 59 259 316 419 582
364z"/>
</g>
</svg>
